<svg xmlns="http://www.w3.org/2000/svg" viewBox="0 0 1200 900" role="img" aria-labelledby="title desc">
  <title id="title">Superhost booking platform concept</title>
  <desc id="desc">A refined hospitality booking composition with luminous room blocks, calendar forms, and violet navigation.</desc>
  <defs>
    <linearGradient id="bg" x1="0" x2="1" y1="0" y2="1">
      <stop offset="0" stop-color="#0b0b18"/>
      <stop offset="0.58" stop-color="#161632"/>
      <stop offset="1" stop-color="#060614"/>
    </linearGradient>
    <filter id="shadow" x="-30%" y="-30%" width="160%" height="160%">
      <feDropShadow dx="0" dy="26" stdDeviation="24" flood-color="#000000" flood-opacity="0.38"/>
    </filter>
  </defs>
  <rect width="1200" height="900" fill="url(#bg)"/>
  <rect x="96" y="90" width="1008" height="720" rx="24" fill="#f8f7ff" opacity="0.08"/>
  <g filter="url(#shadow)">
    <rect x="176" y="150" width="848" height="560" rx="22" fill="#f8f7ff"/>
    <rect x="216" y="190" width="380" height="480" rx="18" fill="#11111a"/>
    <rect x="628" y="190" width="356" height="168" rx="18" fill="#8b5cf6"/>
    <rect x="628" y="390" width="158" height="132" rx="18" fill="#e6e1f5"/>
    <rect x="826" y="390" width="158" height="132" rx="18" fill="#d6a756"/>
    <rect x="628" y="554" width="356" height="116" rx="18" fill="#11111a"/>
    <path d="M270 560h270M270 600h188M680 252h242M680 292h176M674 612h250" stroke="#f4f4f5" stroke-width="14" stroke-linecap="round" opacity="0.72"/>
    <path d="M674 450h64M872 450h64" stroke="#11111a" stroke-width="12" stroke-linecap="round" opacity="0.55"/>
  </g>
  <circle cx="330" cy="300" r="70" fill="#8b5cf6" opacity="0.85"/>
  <circle cx="470" cy="360" r="106" fill="#3b82f6" opacity="0.45"/>
  <circle cx="388" cy="420" r="34" fill="#f5d28a" opacity="0.92"/>
</svg>
